<svg xmlns="http://www.w3.org/2000/svg"  viewBox="0 0 24 24" width="24px" height="24px" baseProfile="basic"><path d="M12,11.214c0-3.038-2.462-5.5-5.5-5.5S1,8.177,1,11.214c0,0,0,0.178,0,0.262	C1,11.765,1.235,12,1.524,12S12,12,12,12s0-0.235,0-0.524C12,11.392,12,11.214,12,11.214z" opacity=".3"/><path d="M11.214,12c-3.038,0-5.5,2.462-5.5,5.5s2.462,5.5,5.5,5.5c0,0,0.178,0,0.262,0	C11.765,23,12,22.765,12,22.476S12,12,12,12s-0.235,0-0.524,0C11.392,12,11.214,12,11.214,12z" opacity=".3"/><path d="M12,12.786c0,3.038,2.462,5.5,5.5,5.5s5.5-2.462,5.5-5.5c0,0,0-0.178,0-0.262	C23,12.235,22.765,12,22.476,12S12,12,12,12s0,0.235,0,0.524C12,12.608,12,12.786,12,12.786z" opacity=".3"/><path d="M12.786,12c3.038,0,5.5-2.462,5.5-5.5S15.823,1,12.786,1c0,0-0.178,0-0.262,0	C12.235,1,12,1.235,12,1.524S12,12,12,12s0.235,0,0.524,0C12.608,12,12.786,12,12.786,12z" opacity=".3"/><path d="M12,13H1.523C0.684,13,0,12.316,0,11.476v-0.262c0-3.584,2.916-6.5,6.5-6.5s6.5,2.916,6.5,6.5V12C13,12.552,12.553,13,12,13	z M2.005,11h8.99C10.883,8.618,8.909,6.714,6.5,6.714S2.117,8.618,2.005,11z"/><path d="M11.477,24h-0.263c-3.584,0-6.5-2.916-6.5-6.5s2.916-6.5,6.5-6.5H12c0.553,0,1,0.448,1,1v10.476	C13,23.316,12.316,24,11.477,24z M11,13.005C8.617,13.117,6.714,15.09,6.714,17.5S8.617,21.883,11,21.995V13.005z"/><path d="M17.5,19.286c-3.584,0-6.5-2.916-6.5-6.5V12c0-0.552,0.447-1,1-1h10.477C23.316,11,24,11.684,24,12.524v0.262	C24,16.37,21.084,19.286,17.5,19.286z M13.005,13c0.112,2.382,2.086,4.286,4.495,4.286s4.383-1.903,4.495-4.286H13.005z"/><path d="M12.786,13H12c-0.553,0-1-0.448-1-1V1.524C11,0.684,11.684,0,12.523,0h0.263c3.584,0,6.5,2.916,6.5,6.5S16.37,13,12.786,13z M13,2.005v8.99c2.383-0.112,4.286-2.085,4.286-4.495S15.383,2.117,13,2.005z"/></svg>